<?xml version="1.0" standalone="no"?>
<!DOCTYPE svg PUBLIC "-//W3C//DTD SVG 20010904//EN"
 "http://www.w3.org/TR/2001/REC-SVG-20010904/DTD/svg10.dtd">
<svg version="1.0" xmlns="http://www.w3.org/2000/svg"
 width="438.000000pt" height="402.000000pt" viewBox="0 0 438.000000 402.000000"
 preserveAspectRatio="xMidYMid meet">

<g transform="translate(0.000000,402.000000) scale(0.100000,-0.100000)"
fill="#000000" stroke="none">
<path d="M0 2010 l0 -2010 2190 0 2190 0 0 2010 0 2010 -2190 0 -2190 0 0
-2010z m1420 851 c0 -28 -1 -28 -75 -35 -144 -13 -207 -52 -225 -140 -7 -35
-10 -287 -8 -761 3 -582 6 -715 17 -737 27 -53 56 -58 318 -58 264 0 343 9
420 46 77 37 161 133 221 251 44 87 52 98 73 95 13 -2 25 -5 26 -6 2 -1 -33
-116 -77 -255 -44 -139 -80 -254 -80 -257 0 -2 -331 -4 -735 -4 l-735 0 0 29
0 28 79 5 c89 5 134 27 166 80 19 32 20 53 23 777 3 855 5 831 -73 876 -33 20
-64 28 -120 32 -69 5 -75 8 -75 28 0 12 3 25 7 28 3 4 197 7 430 7 l423 0 0
-29z m1730 0 c0 -28 -1 -28 -75 -35 -144 -13 -207 -52 -225 -140 -7 -35 -10
-287 -8 -761 3 -582 6 -715 17 -737 27 -53 56 -58 318 -58 264 0 343 9 420 46
77 37 161 133 221 251 44 87 52 98 73 95 13 -2 25 -5 26 -6 2 -1 -33 -116 -77
-255 -44 -139 -80 -254 -80 -257 0 -2 -331 -4 -735 -4 l-735 0 0 29 0 28 79 5
c89 5 134 27 166 80 19 32 20 53 23 777 3 855 5 831 -73 876 -33 20 -64 28
-120 32 -69 5 -75 8 -75 28 0 12 3 25 7 28 3 4 197 7 430 7 l423 0 0 -29z"/>
</g>
</svg>
